<svg width="38" height="38" viewBox="0 0 38 38" fill="none" xmlns="http://www.w3.org/2000/svg">
<path d="M18.0034 1.06206C18.1045 -0.161482 19.8955 -0.161491 19.9966 1.06205L20.9064 12.0738C20.9734 12.8845 21.9289 13.2803 22.5495 12.7544L30.9793 5.61126C31.916 4.81756 33.1824 6.084 32.3888 7.02066L25.2456 15.4505C24.7197 16.0711 25.1155 17.0266 25.9262 17.0936L36.9379 18.0034C38.1615 18.1045 38.1615 19.8955 36.9379 19.9966L25.9262 20.9064C25.1155 20.9734 24.7197 21.9289 25.2456 22.5495L32.3887 30.9793C33.1824 31.916 31.916 33.1824 30.9793 32.3888L22.5495 25.2456C21.9289 24.7197 20.9734 25.1155 20.9064 25.9262L19.9966 36.9379C19.8955 38.1615 18.1045 38.1615 18.0034 36.9379L17.0936 25.9262C17.0266 25.1155 16.0711 24.7197 15.4505 25.2456L7.02067 32.3887C6.08401 33.1824 4.81756 31.916 5.61125 30.9793L12.7544 22.5495C13.2803 21.9289 12.8845 20.9734 12.0738 20.9064L1.06206 19.9966C-0.161482 19.8955 -0.161491 18.1045 1.06205 18.0034L12.0738 17.0936C12.8845 17.0266 13.2803 16.0711 12.7544 15.4505L5.61126 7.02067C4.81756 6.08401 6.084 4.81756 7.02066 5.61125L15.4505 12.7544C16.0711 13.2803 17.0266 12.8845 17.0936 12.0738L18.0034 1.06206Z" fill="#e35325"/>
</svg>
