<svg width="21" height="20" viewBox="0 0 21 20" fill="none" xmlns="http://www.w3.org/2000/svg">
<path d="M19.4358 5.48381C19.1427 4.80207 18.7201 4.18428 18.1917 3.66503C17.6629 3.14423 17.0394 2.73036 16.3551 2.44592C15.6455 2.14981 14.8845 1.99824 14.1161 2.00002C13.0382 2.00002 11.9865 2.29656 11.0726 2.85669C10.8539 2.99068 10.6462 3.13785 10.4494 3.2982C10.2527 3.13785 10.0449 2.99068 9.82629 2.85669C8.91235 2.29656 7.86066 2.00002 6.78273 2.00002C6.00654 2.00002 5.25439 2.14938 4.54379 2.44592C3.85724 2.73148 3.23847 3.14224 2.70716 3.66503C2.17803 4.1837 1.75535 4.80163 1.46306 5.48381C1.15915 6.19331 1.00391 6.94674 1.00391 7.72214C1.00391 8.45361 1.15259 9.21582 1.44776 9.99122C1.69483 10.6392 2.04904 11.3114 2.50163 11.9901C3.21879 13.0643 4.20489 14.1845 5.42931 15.3202C7.45835 17.2026 9.46771 18.503 9.55298 18.5557L10.0712 18.8896C10.3008 19.0368 10.5959 19.0368 10.8255 18.8896L11.3437 18.5557C11.429 18.5008 13.4361 17.2026 15.4674 15.3202C16.6918 14.1845 17.6779 13.0643 18.395 11.9901C18.8476 11.3114 19.204 10.6392 19.4489 9.99122C19.7441 9.21582 19.8928 8.45361 19.8928 7.72214C19.895 6.94674 19.7397 6.19331 19.4358 5.48381V5.48381ZM10.4494 17.1521C10.4494 17.1521 2.66562 12.1417 2.66562 7.72214C2.66562 5.48381 4.50881 3.66943 6.78273 3.66943C8.38104 3.66943 9.76726 4.56564 10.4494 5.87481C11.1316 4.56564 12.5178 3.66943 14.1161 3.66943C16.3901 3.66943 18.2332 5.48381 18.2332 7.72214C18.2332 12.1417 10.4494 17.1521 10.4494 17.1521Z" fill="#0D0D0C" fill-opacity="0.9"/>
</svg>
