<svg width="20" height="20" viewBox="0 0 20 20" fill="none" xmlns="http://www.w3.org/2000/svg">
<path d="M18.4905 5.48381C18.1974 4.80207 17.7748 4.18428 17.2464 3.66503C16.7176 3.14423 16.094 2.73036 15.4098 2.44592C14.7002 2.14981 13.9392 1.99824 13.1708 2.00002C12.0929 2.00002 11.0412 2.29656 10.1273 2.85669C9.90862 2.99068 9.7009 3.13785 9.50412 3.2982C9.30734 3.13785 9.09962 2.99068 8.88098 2.85669C7.96704 2.29656 6.91535 2.00002 5.83742 2.00002C5.06122 2.00002 4.30908 2.14938 3.59848 2.44592C2.91193 2.73148 2.29316 3.14224 1.76185 3.66503C1.23272 4.1837 0.810033 4.80163 0.517751 5.48381C0.213833 6.19331 0.0585938 6.94674 0.0585938 7.72214C0.0585938 8.45361 0.207273 9.21582 0.502446 9.99122C0.749517 10.6392 1.10372 11.3114 1.55632 11.9901C2.27348 13.0643 3.25958 14.1845 4.484 15.3202C6.51304 17.2026 8.5224 18.503 8.60767 18.5557L9.12586 18.8896C9.35544 19.0368 9.65061 19.0368 9.88019 18.8896L10.3984 18.5557C10.4837 18.5008 12.4908 17.2026 14.5221 15.3202C15.7465 14.1845 16.7326 13.0643 17.4497 11.9901C17.9023 11.3114 18.2587 10.6392 18.5036 9.99122C18.7988 9.21582 18.9475 8.45361 18.9475 7.72214C18.9496 6.94674 18.7944 6.19331 18.4905 5.48381ZM9.50412 17.1521C9.50412 17.1521 1.72031 12.1417 1.72031 7.72214C1.72031 5.48381 3.5635 3.66943 5.83742 3.66943C7.43572 3.66943 8.82194 4.56564 9.50412 5.87481C10.1863 4.56564 11.5725 3.66943 13.1708 3.66943C15.4447 3.66943 17.2879 5.48381 17.2879 7.72214C17.2879 12.1417 9.50412 17.1521 9.50412 17.1521Z" fill="#F9F7F1"/>
</svg>
