<svg width="20" height="20" viewBox="0 0 20 20" fill="none" xmlns="http://www.w3.org/2000/svg">
<path d="M10.0012 1.16634C9.12503 1.16634 8.26855 1.42615 7.54006 1.91291C6.81156 2.39968 6.24377 3.09153 5.90848 3.90099C5.57319 4.71045 5.48546 5.60116 5.65639 6.46048C5.82732 7.3198 6.24923 8.10913 6.86876 8.72867C7.4883 9.3482 8.27763 9.77011 9.13695 9.94104C9.99627 10.112 10.887 10.0242 11.6964 9.68895C12.5059 9.35366 13.1978 8.78587 13.6845 8.05737C14.1713 7.32888 14.4311 6.4724 14.4311 5.59625C14.4311 4.42136 13.9644 3.2946 13.1336 2.46383C12.3028 1.63306 11.1761 1.16634 10.0012 1.16634ZM10.0012 8.25419C9.47549 8.25419 8.9616 8.09831 8.52451 7.80625C8.08741 7.51419 7.74673 7.09907 7.54556 6.6134C7.34439 6.12772 7.29175 5.5933 7.39431 5.07771C7.49687 4.56212 7.75001 4.08852 8.12173 3.71679C8.49345 3.34507 8.96705 3.09193 9.48264 2.98937C9.99823 2.88681 10.5327 2.93945 11.0183 3.14062C11.504 3.3418 11.9191 3.68247 12.2112 4.11957C12.5032 4.55667 12.6591 5.07055 12.6591 5.59625C12.6591 6.30118 12.3791 6.97724 11.8806 7.4757C11.3822 7.97416 10.7061 8.25419 10.0012 8.25419ZM17.975 18V17.114C17.975 15.4692 17.3216 13.8917 16.1585 12.7286C14.9955 11.5655 13.418 10.9121 11.7731 10.9121H8.22922C6.58438 10.9121 5.00691 11.5655 3.84383 12.7286C2.68075 13.8917 2.02734 15.4692 2.02734 17.114V18H3.79931V17.114C3.79931 15.9391 4.26603 14.8124 5.0968 13.9816C5.92757 13.1508 7.05433 12.6841 8.22922 12.6841H11.7731C12.948 12.6841 14.0748 13.1508 14.9056 13.9816C15.7363 14.8124 16.2031 15.9391 16.2031 17.114V18H17.975Z" fill="#0D0D0C" fill-opacity="0.8"/>
</svg>
