<svg width="22" height="63" viewBox="0 0 22 63" fill="none" xmlns="http://www.w3.org/2000/svg">
<path d="M11.0039 60.9999L9.59941 61.5266C9.81896 62.112 10.3786 62.4999 11.0039 62.4999C11.6292 62.4999 12.1889 62.112 12.4084 61.5266L11.0039 60.9999ZM20.7098 53.3234C21.4408 52.9336 21.7173 52.025 21.3274 51.294C20.9376 50.563 20.029 50.2865 19.298 50.6763L20.7098 53.3234ZM2.70979 50.6763C1.97882 50.2865 1.07022 50.563 0.680376 51.294C0.290528 52.025 0.567058 52.9336 1.29802 53.3234L2.70979 50.6763ZM12.5039 60.9999L12.5039 0.499877L9.50391 0.499878L9.50391 60.9999L12.5039 60.9999ZM12.4084 61.5266C13.035 59.8555 14.4554 58.1321 16.1353 56.6122C17.7949 55.1106 19.5691 53.9318 20.7098 53.3234L19.298 50.6763C17.9387 51.4013 15.9629 52.7225 14.1225 54.3876C12.3024 56.0343 10.4728 58.1442 9.59941 60.4732L12.4084 61.5266ZM12.4084 60.4732C11.535 58.1442 9.70538 56.0343 7.88528 54.3876C6.04491 52.7225 4.06913 51.4013 2.70979 50.6763L1.29802 53.3234C2.43868 53.9318 4.21291 55.1106 5.87254 56.6122C7.55244 58.1321 8.97277 59.8555 9.59941 61.5266L12.4084 60.4732Z" fill="black"/>
</svg>
