<svg width="173" height="172" viewBox="0 0 173 172" fill="none" xmlns="http://www.w3.org/2000/svg">
<path d="M170.489 86.3536L170.181 93.0165L168.822 92.9535L169.041 88.2286L167.563 88.1601L167.355 92.6452L166.056 92.5851L166.264 88.0999L164.626 88.024L164.405 92.7888L163.046 92.7259L163.357 86.0231L170.489 86.3536Z" fill="#0D0D0C" fill-opacity="0.9"/>
<path d="M166.265 96.4258L170.094 94.1801L169.754 96.4852L167.329 97.7147L169.296 99.5916L168.956 101.897L165.938 98.6419L161.856 101.103L162.207 98.7186L164.845 97.3486L162.715 95.2758L163.066 92.8915L166.265 96.4258Z" fill="#0D0D0C" fill-opacity="0.9"/>
<path d="M168.709 103.1L167.506 107.747C167.301 108.541 166.957 109.096 166.476 109.412C165.993 109.735 165.426 109.812 164.774 109.643C164.032 109.451 163.506 109.112 163.198 108.626C162.89 108.14 162.832 107.512 163.025 106.742L163.779 103.828L161.31 103.189L161.796 101.311L168.709 103.1ZM165.038 104.154L164.486 106.284C164.374 106.716 164.375 107.033 164.488 107.235C164.606 107.444 164.823 107.59 165.139 107.672C165.456 107.754 165.717 107.742 165.923 107.637C166.128 107.539 166.286 107.273 166.398 106.841L166.964 104.653L165.038 104.154Z" fill="#0D0D0C" fill-opacity="0.9"/>
<path d="M166.246 112.11L165.565 113.927L160.209 111.917L158.681 115.99L157.352 115.491L159.561 109.602L166.246 112.11Z" fill="#0D0D0C" fill-opacity="0.9"/>
<path d="M156.133 126.021C155.048 125.464 154.39 124.702 154.159 123.737C153.928 122.771 154.144 121.642 154.808 120.349C155.472 119.056 156.264 118.223 157.183 117.848C158.109 117.476 159.111 117.568 160.19 118.122C161.27 118.677 161.925 119.437 162.156 120.402C162.393 121.371 162.179 122.501 161.515 123.794C160.851 125.087 160.056 125.919 159.131 126.291C158.212 126.665 157.212 126.576 156.133 126.021ZM157.074 124.189C157.691 124.506 158.297 124.581 158.892 124.414C159.49 124.257 159.961 123.843 160.305 123.173C160.65 122.503 160.713 121.876 160.496 121.292C160.282 120.717 159.866 120.271 159.249 119.955C158.618 119.638 158.006 119.559 157.414 119.72C156.827 119.884 156.362 120.3 156.018 120.971C155.674 121.641 155.606 122.262 155.814 122.833C156.029 123.408 156.449 123.86 157.074 124.189Z" fill="#0D0D0C" fill-opacity="0.9"/>
<path d="M158.304 129.302L155.406 133.608C154.978 134.244 154.51 134.624 154.001 134.747C153.492 134.871 152.994 134.769 152.507 134.441C152.137 134.192 151.887 133.912 151.759 133.6C151.633 133.298 151.622 132.938 151.728 132.519L151.711 132.507C151.488 132.743 151.195 132.839 150.831 132.795C150.467 132.751 150.05 132.57 149.579 132.254C149.27 132.046 148.987 131.892 148.733 131.793C148.478 131.694 148.263 131.661 148.087 131.696L149.27 129.937C149.411 129.943 149.558 129.982 149.711 130.052C149.87 130.127 150.137 130.291 150.513 130.544C150.873 130.786 151.182 130.894 151.441 130.867C151.696 130.846 151.924 130.686 152.125 130.387L153.471 128.388L151.297 126.925L152.38 125.316L158.304 129.302ZM154.599 129.147L153.164 131.279C153.015 131.501 152.956 131.726 152.987 131.955C153.019 132.194 153.157 132.395 153.4 132.559C153.643 132.723 153.878 132.768 154.104 132.695C154.335 132.626 154.538 132.461 154.713 132.201L156.092 130.152L154.599 129.147Z" fill="#0D0D0C" fill-opacity="0.9"/>
<path d="M152.951 137.03L148.663 142.139L147.621 141.265L150.662 137.642L149.528 136.69L146.642 140.13L145.646 139.294L148.532 135.855L147.276 134.8L144.21 138.454L143.168 137.58L147.481 132.44L152.951 137.03Z" fill="#0D0D0C" fill-opacity="0.9"/>
<path d="M127.764 158.782L121.831 161.83L121.21 160.62L125.417 158.459L124.741 157.142L120.747 159.194L120.153 158.037L124.147 155.986L123.397 154.527L119.154 156.706L118.533 155.497L124.502 152.431L127.764 158.782Z" fill="#0D0D0C" fill-opacity="0.9"/>
<path d="M116.976 160.098L120.828 162.303L118.659 163.154L116.387 161.661L115.736 164.301L113.567 165.152L114.891 160.916L110.726 158.597L112.97 157.717L115.47 159.325L116.209 156.445L118.453 155.565L116.976 160.098Z" fill="#0D0D0C" fill-opacity="0.9"/>
<path d="M112.433 165.51L107.805 166.783C107.014 167.001 106.362 166.98 105.848 166.72C105.328 166.462 104.978 166.009 104.8 165.359C104.596 164.62 104.629 163.996 104.896 163.487C105.164 162.977 105.68 162.614 106.443 162.397L109.345 161.599L108.669 159.14L110.539 158.626L112.433 165.51ZM109.69 162.853L107.569 163.436C107.138 163.554 106.864 163.713 106.745 163.911C106.622 164.118 106.604 164.379 106.691 164.694C106.778 165.009 106.918 165.23 107.112 165.356C107.299 165.484 107.608 165.489 108.039 165.371L110.218 164.771L109.69 162.853Z" fill="#0D0D0C" fill-opacity="0.9"/>
<path d="M103.338 167.864L101.423 168.176L100.503 162.531L96.2093 163.231L95.9807 161.83L102.189 160.817L103.338 167.864Z" fill="#0D0D0C" fill-opacity="0.9"/>
<path d="M86.3722 166.01C86.311 164.791 86.6404 163.84 87.3604 163.157C88.0803 162.473 89.1661 162.095 90.6176 162.022C92.0691 161.949 93.1872 162.217 93.9721 162.825C94.7572 163.439 95.1802 164.353 95.241 165.564C95.3019 166.776 94.9723 167.724 94.2524 168.408C93.5327 169.098 92.4472 169.479 90.9957 169.552C89.5442 169.625 88.4258 169.354 87.6407 168.74C86.8559 168.131 86.4331 167.222 86.3722 166.01ZM88.4296 165.906C88.4644 166.599 88.7029 167.161 89.1451 167.593C89.581 168.031 90.1751 168.232 90.9275 168.194C91.6799 168.156 92.2543 167.897 92.6507 167.417C93.0407 166.943 93.2184 166.36 93.1836 165.668C93.1415 164.962 92.9027 164.394 92.4672 163.962C92.032 163.536 91.4382 163.342 90.6858 163.38C89.9334 163.418 89.362 163.67 88.9716 164.137C88.5815 164.611 88.4008 165.2 88.4296 165.906Z" fill="#0D0D0C" fill-opacity="0.9"/>
<path d="M84.2588 169.513L79.0827 169.133C78.3181 169.076 77.756 168.858 77.3962 168.477C77.0364 168.097 76.878 167.614 76.921 167.029C76.9537 166.583 77.0734 166.228 77.2801 165.962C77.4796 165.703 77.7875 165.515 78.2038 165.398L78.2053 165.378C77.8901 165.302 77.6613 165.094 77.519 164.756C77.3767 164.418 77.3263 163.967 77.3678 163.402C77.3951 163.029 77.3887 162.708 77.3483 162.438C77.308 162.167 77.2294 161.964 77.1123 161.829L79.2266 161.984C79.291 162.109 79.3303 162.256 79.3447 162.424C79.3586 162.598 79.349 162.912 79.3158 163.364C79.284 163.796 79.344 164.118 79.4955 164.33C79.6405 164.541 79.8924 164.66 80.2515 164.686L82.655 164.863L82.8469 162.25L84.7817 162.392L84.2588 169.513ZM82.5554 166.219L79.9923 166.031C79.7264 166.011 79.5013 166.072 79.3172 166.212C79.126 166.358 79.0197 166.578 78.9982 166.87C78.9767 167.163 79.0537 167.389 79.2291 167.549C79.404 167.716 79.6477 167.81 79.9602 167.833L82.4236 168.014L82.5554 166.219Z" fill="#0D0D0C" fill-opacity="0.9"/>
<path d="M74.9159 168.699L68.3501 167.525L68.5896 166.186L73.2457 167.019L73.5063 165.562L69.0865 164.772L69.3154 163.492L73.7352 164.282L74.024 162.668L69.3285 161.828L69.568 160.489L76.1731 161.671L74.9159 168.699Z" fill="#0D0D0C" fill-opacity="0.9"/>
<path d="M43.6062 157.611L38.0185 153.969L38.7611 152.83L42.7236 155.413L43.5318 154.173L39.7704 151.721L40.4802 150.632L44.2417 153.084L45.1372 151.71L41.1412 149.105L41.8839 147.966L47.5051 151.63L43.6062 157.611Z" fill="#0D0D0C" fill-opacity="0.9"/>
<path d="M37.1015 148.872L37.0877 153.311L35.2759 151.846L35.4509 149.132L32.8342 149.872L31.0224 148.407L35.3597 147.464L35.3173 142.697L37.1914 144.213L37.0291 147.181L39.8974 146.401L41.7714 147.916L37.1015 148.872Z" fill="#0D0D0C" fill-opacity="0.9"/>
<path d="M30.143 147.608L26.7489 144.214C26.169 143.634 25.865 143.057 25.8367 142.482C25.8037 141.902 26.0253 141.374 26.5014 140.898C27.0435 140.356 27.6021 140.075 28.1772 140.056C28.7523 140.037 29.3227 140.306 29.8884 140.862L32.0168 142.991L33.8199 141.188L35.1917 142.559L30.143 147.608ZM31.0976 143.91L29.5419 142.354C29.2261 142.038 28.9527 141.878 28.7217 141.873C28.4813 141.869 28.2456 141.982 28.0146 142.213C27.7836 142.444 27.661 142.675 27.6469 142.906C27.628 143.132 27.7765 143.403 28.0924 143.719L29.6904 145.317L31.0976 143.91Z" fill="#0D0D0C" fill-opacity="0.9"/>
<path d="M23.5969 140.889L22.3771 139.381L26.825 135.784L24.09 132.402L25.1942 131.509L29.149 136.4L23.5969 140.889Z" fill="#0D0D0C" fill-opacity="0.9"/>
<path d="M16.8359 125.331C17.8628 124.673 18.8518 124.486 19.8028 124.771C20.7539 125.056 21.6217 125.81 22.4064 127.033C23.1911 128.257 23.5146 129.36 23.377 130.343C23.2338 131.33 22.6516 132.151 21.6303 132.806C20.609 133.461 19.6229 133.646 18.6718 133.361C17.7152 133.08 16.8445 132.327 16.0598 131.104C15.2752 129.881 14.9544 128.776 15.0976 127.789C15.2352 126.806 15.8146 125.987 16.8359 125.331ZM17.9481 127.065C17.3645 127.44 16.9953 127.926 16.8405 128.524C16.6765 129.121 16.7978 129.736 17.2046 130.37C17.6113 131.004 18.1216 131.374 18.7356 131.479C19.3403 131.582 19.9345 131.446 20.5181 131.072C21.1093 130.685 21.4841 130.195 21.6426 129.602C21.7954 129.013 21.6684 128.402 21.2617 127.768C20.8549 127.133 20.352 126.763 19.7529 126.656C19.1481 126.553 18.5465 126.689 17.9481 127.065Z" fill="#0D0D0C" fill-opacity="0.9"/>
<path d="M12.8381 125.429L10.5874 120.753C10.2549 120.062 10.164 119.466 10.3147 118.964C10.4654 118.462 10.8051 118.084 11.3337 117.83C11.7362 117.636 12.1041 117.563 12.4373 117.61C12.7617 117.653 13.0781 117.827 13.3866 118.129L13.4046 118.121C13.3139 117.809 13.3796 117.508 13.6017 117.216C13.8237 116.924 14.1901 116.655 14.7007 116.409C15.0371 116.247 15.3124 116.082 15.5267 115.912C15.741 115.742 15.8777 115.573 15.9369 115.404L16.8563 117.314C16.78 117.432 16.6725 117.539 16.5339 117.636C16.3892 117.735 16.1127 117.883 15.7042 118.079C15.3137 118.267 15.0645 118.48 14.9566 118.717C14.8458 118.948 14.8684 119.225 15.0245 119.55L16.0697 121.721L18.4305 120.585L19.2718 122.333L12.8381 125.429ZM14.8442 122.311L13.7297 119.995C13.614 119.755 13.4496 119.59 13.2362 119.5C13.014 119.407 12.7707 119.425 12.5064 119.552C12.2421 119.679 12.0843 119.859 12.0331 120.09C11.9759 120.325 12.0152 120.584 12.1511 120.866L13.2223 123.092L14.8442 122.311Z" fill="#0D0D0C" fill-opacity="0.9"/>
<path d="M8.92411 117.029L6.67498 110.75L7.95532 110.291L9.55029 114.744L10.9436 114.245L9.42957 110.018L10.6534 109.58L12.1675 113.807L13.7114 113.254L12.103 108.763L13.3833 108.304L15.6459 114.621L8.92411 117.029Z" fill="#0D0D0C" fill-opacity="0.9"/>
<path d="M2.89231 84.1315L3.27813 77.4727L4.63586 77.5514L4.36225 82.2735L5.83978 82.3591L6.0995 77.8766L7.39732 77.9518L7.1376 82.4343L8.77485 82.5291L9.05077 77.7671L10.4085 77.8458L10.0204 84.5446L2.89231 84.1315Z" fill="#0D0D0C" fill-opacity="0.9"/>
<path d="M7.21907 74.1594L3.36508 76.3609L3.73135 74.0599L6.17055 72.8584L4.22495 70.9589L4.59122 68.6579L7.57119 71.9472L11.6818 69.5334L11.3029 71.9134L8.64934 73.2529L10.7559 75.3502L10.377 77.7302L7.21907 74.1594Z" fill="#0D0D0C" fill-opacity="0.9"/>
<path d="M4.8403 67.5028L6.09578 62.8699C6.31026 62.0784 6.6599 61.5274 7.14471 61.2167C7.63126 60.8996 8.19948 60.8291 8.84937 61.0052C9.58935 61.2057 10.1106 61.5507 10.4131 62.0402C10.7156 62.5297 10.7663 63.1582 10.5652 63.9257L9.77793 66.8309L12.2392 67.4979L11.7317 69.3703L4.8403 67.5028ZM8.52319 66.4908L9.09862 64.3674C9.21545 63.9363 9.21845 63.6194 9.10761 63.4167C8.99208 63.2058 8.77667 63.0576 8.46138 62.9722C8.14608 62.8867 7.88473 62.8954 7.67733 62.998C7.47167 63.0942 7.31042 63.3579 7.19359 63.789L6.60247 65.9703L8.52319 66.4908Z" fill="#0D0D0C" fill-opacity="0.9"/>
<path d="M7.48767 58.2352L8.19637 56.4293L13.521 58.5188L15.1101 54.4695L16.432 54.9882L14.1342 60.8435L7.48767 58.2352Z" fill="#0D0D0C" fill-opacity="0.9"/>
<path d="M17.6519 44.7203C18.7309 45.2897 19.3805 46.0585 19.6008 47.0265C19.821 47.9946 19.592 49.1213 18.9137 50.4066C18.2353 51.6919 17.4344 52.5168 16.5108 52.8812C15.5814 53.2425 14.5802 53.1399 13.5071 52.5736C12.4341 52.0073 11.7874 51.2401 11.5671 50.272C11.3409 49.3008 11.567 48.1726 12.2454 46.8873C12.9237 45.6019 13.7276 44.7786 14.6571 44.4174C15.5806 44.053 16.5789 44.1539 17.6519 44.7203ZM16.6904 46.5421C16.0772 46.2185 15.4722 46.1366 14.8752 46.2964C14.2755 46.4473 13.7998 46.8558 13.4482 47.522C13.0965 48.1883 13.0261 48.8145 13.2369 49.4006C13.4449 49.9778 13.8555 50.4281 14.4686 50.7518C15.0967 51.0757 15.7077 51.1607 16.3015 51.0068C16.8895 50.8497 17.3593 50.438 17.7109 49.7718C18.0625 49.1056 18.1373 48.4854 17.9352 47.9114C17.7272 47.3343 17.3123 46.8778 16.6904 46.5421Z" fill="#0D0D0C" fill-opacity="0.9"/>
<path d="M15.4526 41.4962L18.3972 37.2224C18.8322 36.5911 19.3049 36.2165 19.8152 36.0985C20.3256 35.9806 20.8223 36.088 21.3054 36.4209C21.6732 36.6743 21.9194 36.9573 22.0441 37.2699C22.167 37.5732 22.1735 37.9339 22.0636 38.352L22.0801 38.3633C22.3055 38.1301 22.6001 38.0375 22.9636 38.0856C23.3272 38.1337 23.7423 38.3185 24.2089 38.64C24.5163 38.8518 24.7969 39.0087 25.0505 39.1106C25.3041 39.2124 25.519 39.2472 25.6952 39.2147L24.4924 40.9605C24.352 40.9528 24.2056 40.9126 24.0532 40.84C23.8953 40.7637 23.6297 40.5969 23.2564 40.3396C22.8996 40.0938 22.5916 39.9827 22.3323 40.0065C22.0768 40.0248 21.847 40.1822 21.6427 40.4786L20.2754 42.4632L22.4328 43.9497L21.3322 45.5472L15.4526 41.4962ZM19.1555 41.6915L20.6136 39.5752C20.7649 39.3556 20.8266 39.131 20.7986 38.9013C20.769 38.6623 20.6334 38.4595 20.3919 38.2931C20.1503 38.1267 19.9162 38.0787 19.6895 38.1492C19.4574 38.2159 19.2524 38.3783 19.0746 38.6363L17.6732 40.6703L19.1555 41.6915Z" fill="#0D0D0C" fill-opacity="0.9"/>
<path d="M20.8623 33.8302L25.2053 28.7679L26.2375 29.6534L23.1576 33.2433L24.2809 34.207L27.2045 30.7992L28.1911 31.6457L25.2676 35.0535L26.5123 36.1213L29.6182 32.501L30.6504 33.3866L26.2813 38.4792L20.8623 33.8302Z" fill="#0D0D0C" fill-opacity="0.9"/>
<path d="M46.1936 12.32L52.1602 9.33853L52.7681 10.5551L48.5369 12.6694L49.1985 13.9933L53.2149 11.9863L53.796 13.1492L49.7796 15.1562L50.5126 16.6232L54.7796 14.4911L55.3875 15.7076L49.3851 18.707L46.1936 12.32Z" fill="#0D0D0C" fill-opacity="0.9"/>
<path d="M57.0029 11.0923L53.1762 8.84377L55.3546 8.01705L57.6101 9.53555L58.2903 6.90292L60.4687 6.0762L59.0972 10.2975L63.2358 12.6629L60.9826 13.518L58.5007 11.8822L57.729 14.7528L55.4758 15.6079L57.0029 11.0923Z" fill="#0D0D0C" fill-opacity="0.9"/>
<path d="M61.404 5.75822L66.0463 4.53793C66.8393 4.32946 67.4913 4.35798 68.0023 4.62347C68.5197 4.88727 68.8639 5.34477 69.0351 5.99598C69.23 6.73746 69.1907 7.36129 68.917 7.86749C68.6434 8.37369 68.1238 8.73085 67.3582 8.93899L64.4471 9.70421L65.0954 12.1704L63.2191 12.6636L61.404 5.75822ZM64.1166 8.44692L66.2443 7.88762C66.6763 7.77407 66.9526 7.61873 67.0731 7.42162C67.1984 7.21636 67.2195 6.95577 67.1364 6.63983C67.0534 6.3239 66.9157 6.1016 66.7233 5.97295C66.5374 5.8426 66.2285 5.8342 65.7965 5.94775L63.6107 6.5223L64.1166 8.44692Z" fill="#0D0D0C" fill-opacity="0.9"/>
<path d="M70.5366 3.45729L72.4547 3.16702L73.3106 8.82263L77.6116 8.17178L77.8241 9.57579L71.6049 10.5169L70.5366 3.45729Z" fill="#0D0D0C" fill-opacity="0.9"/>
<path d="M87.4369 5.45839C87.484 6.67749 87.1436 7.62466 86.4158 8.29991C85.688 8.97516 84.5979 9.34082 83.1457 9.3969C81.6934 9.45297 80.5784 9.17245 79.8007 8.55533C79.0227 7.93155 78.6103 7.01345 78.5635 5.80102C78.5167 4.58859 78.8572 3.64475 79.585 2.9695C80.3126 2.28758 81.4025 1.91859 82.8548 1.86251C84.307 1.80644 85.4221 2.09029 86.2001 2.71407C86.9778 3.33119 87.3901 4.24596 87.4369 5.45839ZM85.3784 5.53788C85.3517 4.84506 85.1197 4.28026 84.6825 3.84347C84.2518 3.39976 83.66 3.19243 82.9072 3.2215C82.1545 3.25057 81.5771 3.50303 81.1752 3.97889C80.7796 4.44784 80.5952 5.02872 80.622 5.72154C80.6559 6.42742 80.8881 6.99888 81.3187 7.43593C81.7489 7.86632 82.3404 8.06698 83.0932 8.03791C83.846 8.00885 84.4203 7.76317 84.816 7.30089C85.2116 6.83195 85.399 6.24427 85.3784 5.53788Z" fill="#0D0D0C" fill-opacity="0.9"/>
<path d="M90.0277 1.9561L95.1991 2.39594C95.963 2.46092 96.5226 2.68582 96.8779 3.07065C97.2333 3.45548 97.3861 3.94017 97.3363 4.52473C97.2985 4.96979 97.1747 5.32391 96.965 5.58708C96.7625 5.84418 96.4524 6.02856 96.0348 6.14024L96.0331 6.16016C96.3474 6.24042 96.5737 6.45036 96.7121 6.78998C96.8505 7.1296 96.8957 7.58172 96.8477 8.14635C96.816 8.51834 96.8188 8.83973 96.856 9.11052C96.8932 9.38131 96.9695 9.58518 97.085 9.72213L94.9726 9.54246C94.9097 9.41668 94.872 9.26962 94.8596 9.1013C94.8477 8.92633 94.861 8.61299 94.8994 8.16129C94.9361 7.72951 94.8799 7.40692 94.7308 7.19352C94.5883 6.98068 94.3377 6.859 93.979 6.82849L91.5777 6.62425L91.3557 9.23483L89.4226 9.07042L90.0277 1.9561ZM91.693 5.26914L94.2537 5.48695C94.5194 5.50955 94.7451 5.4518 94.9308 5.31371C95.1237 5.16954 95.2326 4.95131 95.2575 4.65904C95.2823 4.36676 95.208 4.13964 95.0344 3.97768C94.8614 3.80908 94.6188 3.7115 94.3066 3.68495L91.8455 3.47562L91.693 5.26914Z" fill="#0D0D0C" fill-opacity="0.9"/>
<path d="M98.9718 2.79767L105.524 4.04735L105.269 5.38327L100.623 4.49706L100.345 5.95085L104.756 6.79209L104.512 8.06907L100.102 7.22783L99.7945 8.83879L104.48 9.73249L104.225 11.0684L97.6341 9.81123L98.9718 2.79767Z" fill="#0D0D0C" fill-opacity="0.9"/>
<path d="M130.596 14.3226L136.13 18.0463L135.371 19.1747L131.446 16.534L130.62 17.7618L134.345 20.2686L133.619 21.3471L129.894 18.8404L128.979 20.201L132.936 22.864L132.177 23.9924L126.61 20.2462L130.596 14.3226Z" fill="#0D0D0C" fill-opacity="0.9"/>
<path d="M136.857 23.0317L136.919 18.5937L138.715 20.0784L138.51 22.7898L141.135 22.0793L142.931 23.564L138.584 24.4591L138.574 29.226L136.716 27.6903L136.911 24.7242L134.034 25.4728L132.177 23.9371L136.857 23.0317Z" fill="#0D0D0C" fill-opacity="0.9"/>
<path d="M143.81 24.3651L147.167 27.796C147.741 28.3821 148.038 28.9629 148.06 29.5383C148.087 30.1184 147.86 30.6439 147.378 31.1148C146.83 31.651 146.269 31.9254 145.693 31.938C145.118 31.9506 144.551 31.6757 143.991 31.1133L141.886 28.9618L140.063 30.7452L138.707 29.3585L143.81 24.3651ZM142.815 28.0526L144.354 29.6251C144.666 29.9444 144.938 30.1077 145.169 30.1149C145.409 30.1222 145.646 30.0117 145.88 29.7832C146.113 29.5547 146.238 29.3251 146.255 29.0943C146.276 28.8682 146.131 28.5956 145.818 28.2763L144.238 26.6609L142.815 28.0526Z" fill="#0D0D0C" fill-opacity="0.9"/>
<path d="M150.299 31.1543L151.502 32.6761L147.015 36.2237L149.713 39.636L148.599 40.5167L144.698 35.5827L150.299 31.1543Z" fill="#0D0D0C" fill-opacity="0.9"/>
<path d="M157.031 47.0123C155.995 47.6559 155.003 47.8282 154.056 47.5293C153.11 47.2304 152.253 46.4636 151.486 45.2289C150.72 43.9942 150.412 42.8863 150.564 41.9052C150.722 40.9206 151.316 40.1083 152.347 39.4683C153.378 38.8282 154.367 38.6577 155.313 38.9565C156.266 39.2519 157.125 40.017 157.892 41.2516C158.659 42.4863 158.963 43.596 158.805 44.5806C158.653 45.5617 158.062 46.3723 157.031 47.0123ZM155.945 45.2622C156.534 44.8965 156.91 44.4157 157.074 43.8197C157.246 43.2259 157.134 42.609 156.737 41.969C156.339 41.329 155.834 40.952 155.222 40.8378C154.619 40.7258 154.023 40.8526 153.434 41.2183C152.837 41.5968 152.455 42.0811 152.288 42.6714C152.126 43.2582 152.244 43.8716 152.642 44.5116C153.039 45.1516 153.537 45.5293 154.134 45.6449C154.737 45.7569 155.341 45.6293 155.945 45.2622Z" fill="#0D0D0C" fill-opacity="0.9"/>
<path d="M160.951 46.7982L163.149 51.4995C163.474 52.194 163.558 52.7912 163.402 53.2912C163.246 53.7911 162.902 54.1653 162.37 54.4138C161.966 54.603 161.597 54.6724 161.264 54.6219C160.941 54.5746 160.626 54.3979 160.321 54.0916L160.303 54.1001C160.39 54.4125 160.321 54.7135 160.096 55.0028C159.87 55.2922 159.501 55.5568 158.988 55.7969C158.65 55.955 158.372 56.1177 158.156 56.2851C157.94 56.4524 157.802 56.6202 157.74 56.7886L156.842 54.8682C156.92 54.7509 157.029 54.6449 157.168 54.5502C157.314 54.4526 157.592 54.3078 158.003 54.1158C158.396 53.9322 158.647 53.7226 158.758 53.4869C158.871 53.2572 158.851 52.9794 158.699 52.6533L157.678 50.4702L155.305 51.58L154.483 49.8226L160.951 46.7982ZM158.91 49.8941L159.999 52.2221C160.112 52.4637 160.274 52.6305 160.487 52.7225C160.708 52.8178 160.951 52.8033 161.217 52.6791C161.483 52.5548 161.642 52.3771 161.696 52.1459C161.756 51.9118 161.72 51.6529 161.587 51.369L160.541 49.1316L158.91 49.8941Z" fill="#0D0D0C" fill-opacity="0.9"/>
<path d="M164.745 55.1509L166.923 61.4552L165.638 61.8993L164.093 57.4286L162.694 57.9119L164.161 62.1558L162.932 62.5803L161.466 58.3365L159.916 58.872L161.473 63.3805L160.188 63.8246L157.997 57.4825L164.745 55.1509Z" fill="#0D0D0C" fill-opacity="0.9"/>
</svg>
