<svg width="134" height="134" viewBox="0 0 134 134" fill="none" xmlns="http://www.w3.org/2000/svg">
<path d="M72.293 5.44985L72.9125 4.66478L72.2931 5.44985C74.7534 7.39098 78.0463 7.91253 80.9861 6.82668L82.1298 6.40422C85.1678 5.2821 88.5788 6.39042 90.377 9.0839L91.054 10.098C92.7941 12.7044 95.7647 14.218 98.8961 14.0937L100.114 14.0454C103.35 13.9169 106.252 16.0251 107.13 19.1424L107.46 20.3161C108.31 23.3326 110.667 25.6901 113.684 26.5396L114.858 26.8701C117.975 27.7479 120.083 30.6495 119.955 33.8856L119.906 35.1039C119.782 38.2353 121.296 41.2059 123.902 42.946L124.916 43.623C127.61 45.4212 128.718 48.8322 127.596 51.8702L127.173 53.0139C126.087 55.9537 126.609 59.2466 128.55 61.707L129.305 62.6642C131.311 65.2067 131.311 68.7933 129.305 71.3358L128.55 72.293C126.609 74.7534 126.087 78.0463 127.173 80.9861L127.596 82.1298C128.718 85.1678 127.61 88.5788 124.916 90.377L123.902 91.054C121.296 92.7941 119.782 95.7647 119.906 98.8961L119.955 100.114C120.083 103.35 117.975 106.252 114.858 107.13L113.684 107.46C110.667 108.31 108.31 110.667 107.46 113.684L107.13 114.858C106.252 117.975 103.35 120.083 100.114 119.955L98.8961 119.906C95.7647 119.782 92.7941 121.296 91.054 123.902L90.377 124.916C88.5788 127.61 85.1678 128.718 82.1298 127.596L80.9861 127.173C78.0463 126.087 74.7534 126.609 72.2931 128.55L71.3358 129.305C68.7933 131.311 65.2067 131.311 62.6642 129.305L61.707 128.55C59.2466 126.609 55.9537 126.087 53.0139 127.173L51.8702 127.596C48.8322 128.718 45.4212 127.61 43.623 124.916L42.946 123.902C41.2059 121.296 38.2353 119.782 35.1039 119.906L33.8856 119.955C30.6495 120.083 27.7479 117.975 26.8701 114.858L26.5396 113.684C25.6901 110.667 23.3326 108.31 20.3161 107.46L19.1424 107.13C16.0251 106.252 13.9169 103.35 14.0454 100.114L14.0937 98.8961C14.218 95.7647 12.7044 92.7941 10.098 91.054L9.0839 90.377C6.39042 88.5788 5.2821 85.1678 6.40422 82.1298L6.82668 80.9861C7.91253 78.0463 7.39098 74.7534 5.44985 72.2931L4.67278 72.9061L5.44985 72.293L4.69461 71.3358C2.68863 68.7933 2.68863 65.2067 4.69462 62.6642L5.44985 61.7069C7.39098 59.2466 7.91253 55.9537 6.82668 53.014L6.40422 51.8702C5.2821 48.8322 6.39042 45.4212 9.0839 43.623L10.098 42.946C12.7044 41.2059 14.218 38.2353 14.0937 35.1039L14.0454 33.8856C13.9169 30.6495 16.0251 27.7479 19.1424 26.8701L20.3161 26.5396C23.3326 25.6901 25.6901 23.3326 26.5396 20.3161L26.8701 19.1424C27.7479 16.0251 30.6495 13.9169 33.8856 14.0454L35.1039 14.0937C38.2353 14.218 41.2059 12.7044 42.946 10.098L43.623 9.0839C45.4212 6.39042 48.8322 5.2821 51.8702 6.40422L53.014 6.82668C55.9537 7.91253 59.2466 7.39098 61.7069 5.44985L62.6642 4.69462C65.2067 2.68863 68.7933 2.68863 71.3358 4.69462L72.293 5.44985Z" stroke="#E35325" stroke-width="2"/>
<path d="M41.0739 58.765C41.134 58.2883 41.0152 57.8845 40.7174 57.5534C40.4286 57.2248 39.865 56.9482 39.0265 56.7236C38.4856 56.5786 38.0239 56.5708 37.6414 56.7003C37.2588 56.8297 37.0241 57.0566 36.9371 57.3812C36.8671 57.6426 36.9107 57.8766 37.068 58.083C37.2276 58.2803 37.4727 58.4475 37.8032 58.5843L40.948 59.9922C41.9749 60.451 42.6771 60.9677 43.0546 61.5423C43.4345 62.1079 43.523 62.7693 43.3201 63.5266C43.0326 64.5994 42.387 65.2961 41.3832 65.6165C40.3908 65.9304 39.0742 65.8675 37.4334 65.4278C36.0901 65.0679 35.0668 64.6681 34.3633 64.2283C33.6712 63.782 33.2023 63.2602 32.9565 62.6629C32.7107 62.0656 32.6869 61.3973 32.8849 60.6581L35.833 61.448C35.7157 61.9577 35.8147 62.3997 36.1299 62.774C36.4565 63.1417 37.048 63.4403 37.9045 63.6698C38.5536 63.8438 39.085 63.8799 39.4988 63.7782C39.9215 63.6789 40.1873 63.4264 40.296 63.0207C40.3926 62.6601 40.3205 62.3702 40.0797 62.1511C39.8413 61.9229 39.467 61.697 38.9568 61.4734L36.6611 60.4669C35.4563 59.9508 34.6754 59.4034 34.3183 58.8246C33.9727 58.2392 33.8978 57.5814 34.0934 56.8511C34.364 55.8414 34.9546 55.188 35.8651 54.8909C36.7848 54.5962 38.0604 54.6674 39.6922 55.1047C41.3781 55.5564 42.5657 56.1548 43.255 56.9C43.9467 57.6361 44.1888 58.5174 43.9814 59.5441L41.0739 58.765ZM46.3194 57.1703L55.3392 59.5872L54.8464 61.4263L48.4501 59.7124L47.9138 61.7138L53.9856 63.3407L53.5146 65.0987L47.4428 63.4718L46.8485 65.6895L53.299 67.4179L52.8062 69.2571L43.7323 66.8257L46.3194 57.1703ZM56.8446 59.9905L65.8644 62.4074L65.3716 64.2465L58.9753 62.5326L58.439 64.534L64.5108 66.1609L64.0398 67.9189L57.968 66.292L57.3737 68.5098L63.8242 70.2381L63.3314 72.0773L54.2575 69.6459L56.8446 59.9905ZM77.2577 73.6782L72.8221 72.4897L71.5052 74.2674L68.6789 73.5101L75.5122 64.9925L78.6766 65.8404L80.3357 76.6336L77.5094 75.8762L77.2577 73.6782ZM76.5364 67.499L73.9964 70.9202L77.0255 71.7318L76.5364 67.499ZM83.6528 67.1738L86.2763 67.8767L84.2037 75.6119L90.0862 77.1881L89.5716 79.1083L81.0657 76.8292L83.6528 67.1738ZM93.4121 69.7888L96.0355 70.4917L93.9629 78.2268L99.8454 79.803L99.3309 81.7233L90.8249 79.4441L93.4121 69.7888Z" fill="#E35325"/>
</svg>
